<svg xmlns="http://www.w3.org/2000/svg" width="77" height="77" viewBox="0 0 77 77"><g transform="translate(-191 -1553)"><rect width="77" height="77" rx="5" transform="translate(191 1553)" fill="#424d83"/><g transform="translate(172 1564.25)"><path d="M28,39.909a12.989,12.989,0,0,0,3.83,9.247l1.079,1.079,1.079-1.079a12.989,12.989,0,0,0,3.83-9.247,4.909,4.909,0,1,0-9.818,0Zm7.364,0A10.543,10.543,0,0,1,32.909,46.7a10.543,10.543,0,0,1-2.455-6.793,2.455,2.455,0,1,1,4.909,0Z" transform="translate(26.062 7.519)" fill="#fff"/><path d="M32.909,34.5a5.415,5.415,0,0,1,5.409,5.409,13.489,13.489,0,0,1-3.978,9.6l-1.431,1.431L31.477,49.51a13.489,13.489,0,0,1-3.977-9.6A5.415,5.415,0,0,1,32.909,34.5Zm0,15.028.725-.725a12.489,12.489,0,0,0,3.684-8.892,4.409,4.409,0,1,0-8.818,0A12.489,12.489,0,0,0,32.183,48.8Zm0-12.574a2.958,2.958,0,0,1,2.954,2.955,11.059,11.059,0,0,1-2.571,7.114l-.384.459-.384-.459a11.06,11.06,0,0,1-2.571-7.115A2.958,2.958,0,0,1,32.909,36.955Zm0,8.938a10.06,10.06,0,0,0,1.954-5.982,1.954,1.954,0,1,0-3.909,0A10.062,10.062,0,0,0,32.909,45.892Z" transform="translate(26.062 7.519)" fill="#424d83"/><path d="M35.665,2.119l-.484-.207-.484.207a15.385,15.385,0,0,0-9.334,14.156v4.533A11.977,11.977,0,0,0,18,31.872v3.284h1.227v4.909h7.364V35.156h3.682v4.909h9.818V35.156h3.682v4.909h7.364V35.156h1.227V31.872A11.977,11.977,0,0,0,45,20.809V16.276A15.385,15.385,0,0,0,35.665,2.119ZM20.455,31.872a9.531,9.531,0,0,1,4.909-8.345V32.7H20.455Zm3.682,5.739H21.682V35.156h2.455Zm13.5,0H32.727V35.156h4.909ZM42.545,32.7H27.818V16.276A12.932,12.932,0,0,1,35.182,4.6a12.932,12.932,0,0,1,7.364,11.681Zm6.136,4.909H46.227V35.156h2.455Zm1.227-5.739v.83H45V23.529A9.531,9.531,0,0,1,49.909,31.872Z" transform="translate(23.79 0)" fill="#fff"/><path d="M35.182,1.368l.681.292A15.863,15.863,0,0,1,45.5,16.276v4.2a12.477,12.477,0,0,1,7.364,11.391v3.784H51.636v4.909H43.272V35.656H40.591v4.909H29.773V35.656H27.091v4.909H18.727V35.656H17.5V31.872a12.477,12.477,0,0,1,7.364-11.391V16.276A15.863,15.863,0,0,1,34.5,1.66ZM51.863,34.656V31.872a11.477,11.477,0,0,0-7.056-10.6l-.307-.128V16.276a14.865,14.865,0,0,0-9.031-13.7l-.287-.123-.286.123a14.865,14.865,0,0,0-9.032,13.7v4.867l-.307.128a11.477,11.477,0,0,0-7.056,10.6v2.785h1.227v4.909h6.364V34.656h4.682v4.909h8.818V34.656h4.682v4.909h6.364V34.656ZM35.182,4.043l.215.1a13.432,13.432,0,0,1,7.648,12.133V33.2H27.318V16.276a13.432,13.432,0,0,1,7.648-12.13ZM42.045,32.2V16.278A12.432,12.432,0,0,0,35.182,5.154a12.432,12.432,0,0,0-6.864,11.122V32.2ZM25.864,22.677V33.2H19.955v-1.33a10.033,10.033,0,0,1,5.167-8.783Zm-1,9.524V24.424a9.034,9.034,0,0,0-3.909,7.448v.33ZM44.5,22.68l.742.412a10.034,10.034,0,0,1,5.167,8.781V33.2H44.5ZM49.409,32.2v-.33A9.034,9.034,0,0,0,45.5,24.426V32.2ZM21.182,34.656h3.455V38.11H21.182Zm2.455,1H22.182V37.11h1.455Zm8.591-1h5.909V38.11H32.227Zm4.909,1H33.227V37.11h3.909Zm8.591-1h3.455V38.11H45.727Zm2.455,1H46.727V37.11h1.455Z" transform="translate(23.79 0)" fill="#424d83"/><path d="M19,38.682a7.2,7.2,0,0,0,2.095,5.058l1.587,1.587,1.587-1.587a7.2,7.2,0,0,0,2.095-5.058,3.682,3.682,0,1,0-7.364,0Zm4.909,0a4.731,4.731,0,0,1-1.227,3.166,4.731,4.731,0,0,1-1.227-3.166,1.227,1.227,0,1,1,2.455,0Z" transform="translate(24.017 7.519)" fill="#fff"/><path d="M22.682,34.5a4.186,4.186,0,0,1,4.182,4.182,7.656,7.656,0,0,1-2.24,5.41l-1.941,1.941-1.94-1.94a7.656,7.656,0,0,1-2.241-5.41A4.187,4.187,0,0,1,22.682,34.5Zm0,10.119,1.233-1.233a6.66,6.66,0,0,0,1.948-4.705,3.182,3.182,0,0,0-6.364,0,6.66,6.66,0,0,0,1.949,4.7Zm0-7.665a1.729,1.729,0,0,1,1.727,1.727,5.223,5.223,0,0,1-1.357,3.5l-.37.408-.37-.408a5.222,5.222,0,0,1-1.357-3.5A1.729,1.729,0,0,1,22.682,36.955Zm0,4.087a4.223,4.223,0,0,0,.727-2.361.727.727,0,0,0-1.454,0A4.221,4.221,0,0,0,22.682,41.041Z" transform="translate(24.017 7.519)" fill="#424d83"/><path d="M39,38.682a7.2,7.2,0,0,0,2.095,5.058l1.587,1.587,1.587-1.587a7.2,7.2,0,0,0,2.095-5.058,3.682,3.682,0,1,0-7.364,0Zm4.909,0a4.731,4.731,0,0,1-1.227,3.166,4.731,4.731,0,0,1-1.227-3.166,1.227,1.227,0,1,1,2.455,0Z" transform="translate(28.562 7.519)" fill="#fff"/><path d="M42.682,34.5a4.182,4.182,0,0,1,4.182,4.182,7.656,7.656,0,0,1-2.24,5.41l-1.941,1.941-1.94-1.94a7.656,7.656,0,0,1-2.241-5.41A4.187,4.187,0,0,1,42.682,34.5Zm0,10.119,1.233-1.233a6.66,6.66,0,0,0,1.948-4.705,3.182,3.182,0,0,0-6.364,0,6.66,6.66,0,0,0,1.949,4.7Zm0-7.665a1.729,1.729,0,0,1,1.727,1.727,5.223,5.223,0,0,1-1.357,3.5l-.37.408-.37-.408a5.222,5.222,0,0,1-1.357-3.5A1.73,1.73,0,0,1,42.682,36.955Zm0,4.087a4.223,4.223,0,0,0,.727-2.361.727.727,0,0,0-1.455,0A4.221,4.221,0,0,0,42.682,41.041Z" transform="translate(28.562 7.519)" fill="#424d83"/><path d="M32.909,10a4.909,4.909,0,1,0,4.909,4.909A4.909,4.909,0,0,0,32.909,10Zm0,7.364a2.455,2.455,0,1,1,2.455-2.455A2.455,2.455,0,0,1,32.909,17.364Z" transform="translate(26.062 1.838)" fill="#fff"/><path d="M32.909,9.5A5.409,5.409,0,1,1,27.5,14.909,5.415,5.415,0,0,1,32.909,9.5Zm0,9.818A4.409,4.409,0,1,0,28.5,14.909,4.414,4.414,0,0,0,32.909,19.318Zm0-7.364a2.955,2.955,0,1,1-2.954,2.955A2.958,2.958,0,0,1,32.909,11.955Zm0,4.909a1.955,1.955,0,1,0-1.954-1.955A1.957,1.957,0,0,0,32.909,16.864Z" transform="translate(26.062 1.838)" fill="#424d83"/></g></g></svg>