<svg xmlns="http://www.w3.org/2000/svg" width="77" height="77" viewBox="0 0 77 77"><g transform="translate(-1100 -1553)"><rect width="77" height="77" rx="5" transform="translate(1100 1553)" fill="#93a5ff"/><g transform="translate(1111.322 1564.322)"><path d="M49.766,2H4.514A2.514,2.514,0,0,0,2,4.514V49.766A2.514,2.514,0,0,0,4.514,52.28H49.766a2.514,2.514,0,0,0,2.514-2.514V4.514A2.514,2.514,0,0,0,49.766,2ZM50.6,49.766a.838.838,0,0,1-.838.838H4.514a.838.838,0,0,1-.838-.838V10.38H50.6ZM3.676,8.7V4.514a.838.838,0,0,1,.838-.838H49.766a.838.838,0,0,1,.838.838V8.7Z" transform="translate(0 0)" fill="#fff"/><path d="M4.514,2.1A2.417,2.417,0,0,0,2.1,4.514V49.766A2.417,2.417,0,0,0,4.514,52.18H49.766a2.417,2.417,0,0,0,2.414-2.414V4.514A2.414,2.414,0,0,0,49.766,2.1H4.514M50.7,8.8H3.576V4.514a.939.939,0,0,1,.938-.938H49.766a.939.939,0,0,1,.938.938V8.8m-.938,41.9H4.514a.939.939,0,0,1-.938-.938V10.28H50.7V49.766a.939.939,0,0,1-.938.938M4.514,2H49.766A2.514,2.514,0,0,1,52.28,4.514V49.766a2.514,2.514,0,0,1-2.514,2.514H4.514A2.514,2.514,0,0,1,2,49.766V4.514A2.514,2.514,0,0,1,4.514,2ZM50.6,8.7V4.514a.838.838,0,0,0-.838-.838H4.514a.838.838,0,0,0-.838.838V8.7Zm-.838,41.9a.838.838,0,0,0,.838-.838V10.38H3.676V49.766a.838.838,0,0,0,.838.838Z" transform="translate(0 0)" fill="#93a5ff"/><path d="M6.243,6.245A.866.866,0,0,0,6,6.84a.838.838,0,0,0,.067.318.782.782,0,0,0,.176.277.841.841,0,0,0,1.19-1.19A.877.877,0,0,0,6.243,6.245Z" transform="translate(-0.648 -0.65)" fill="#fff"/><path d="M10.243,6.242A.882.882,0,0,0,10,6.837,1.136,1.136,0,0,0,10.017,7a.533.533,0,0,0,.05.151.634.634,0,0,0,.075.151,1.321,1.321,0,0,0,.1.126.85.85,0,0,0,1.19,0l.1-.126a.634.634,0,0,0,.075-.151A.533.533,0,0,0,11.659,7a1.136,1.136,0,0,0,.017-.168.838.838,0,0,0-1.433-.595Z" transform="translate(-1.296 -0.647)" fill="#fff"/><path d="M14.243,6.245a.841.841,0,1,0,1.19,0,.877.877,0,0,0-1.19,0Z" transform="translate(-1.944 -0.65)" fill="#fff"/><path d="M49.576,14H6V25.732H49.576ZM47.9,24.056H7.676v-8.38H47.9Z" transform="translate(-0.648 -1.944)" fill="#fff"/><path d="M21.084,30H6V53.464H21.084ZM19.408,51.788H7.676V31.676H19.408Z" transform="translate(-0.648 -4.536)" fill="#fff"/><path d="M26,40.894H52.816V30H26Zm1.676-9.218H51.14v7.542H27.676Z" transform="translate(-3.888 -4.536)" fill="#fff"/><path d="M26,55.894H52.816V45H26Zm1.676-9.218H51.14v7.542H27.676Z" transform="translate(-3.888 -6.966)" fill="#fff"/></g></g></svg>