<svg xmlns="http://www.w3.org/2000/svg" width="67.278" height="64.5" viewBox="0 0 67.278 64.5"><g transform="translate(-319.722 -2260)"><rect width="52" height="54" rx="5" transform="translate(335 2260)" fill="#93a5ff" opacity="0.15"/><path d="M50.863,8.256C49.74,4.094,41.379,0,26.752,0S3.764,4.094,2.642,8.256a.95.95,0,0,0-.142.475V44.625a.912.912,0,0,0,.114.438c1.146,4.749,11.4,8.293,24.139,8.293,12.714,0,22.948-3.53,24.131-8.261a.958.958,0,0,0,.121-.47V8.731A.95.95,0,0,0,50.863,8.256ZM48.988,32.969a2.386,2.386,0,0,1-.113.352,2.787,2.787,0,0,1-.139.288,3.289,3.289,0,0,1-.224.358c-.064.09-.137.179-.212.269-.108.127-.222.254-.352.38-.079.077-.165.152-.252.229-.159.139-.325.276-.51.413-.08.059-.165.116-.249.175-.219.151-.448.3-.7.449-.066.04-.137.078-.206.116-.289.163-.591.325-.917.482-.042.02-.085.04-.128.059-.364.172-.744.341-1.151.5l-.035.014A37.607,37.607,0,0,1,35.5,39.162l-.049.007q-.957.141-1.965.251c-.11.012-.225.019-.336.031-.587.061-1.181.117-1.792.162-.279.02-.572.03-.857.048-.46.027-.915.057-1.386.074-.77.024-1.556.04-2.358.04s-1.588-.016-2.359-.043c-.471-.016-.926-.048-1.386-.074-.284-.016-.577-.027-.857-.048-.611-.045-1.2-.1-1.792-.162-.111-.012-.226-.019-.336-.031q-1.008-.111-1.965-.251l-.049-.007A37.607,37.607,0,0,1,9.7,37.054l-.035-.014c-.406-.163-.788-.332-1.151-.5-.042-.02-.086-.04-.128-.059-.326-.157-.628-.318-.917-.482-.068-.039-.14-.077-.206-.116-.251-.147-.48-.3-.7-.449-.083-.058-.17-.115-.249-.175-.185-.137-.351-.275-.51-.413-.086-.076-.174-.151-.252-.229a5.063,5.063,0,0,1-.352-.38c-.076-.089-.148-.178-.212-.269a3.616,3.616,0,0,1-.224-.358,3,3,0,0,1-.139-.288,2.351,2.351,0,0,1-.113-.352A2.1,2.1,0,0,1,4.44,32.5a2.071,2.071,0,0,1,.03-.328.967.967,0,0,0-.03-.432v-7.2c.027.025.061.049.089.075.211.186.427.372.669.55,3.654,2.764,10.962,4.912,21.554,4.912,10.547,0,17.836-2.13,21.506-4.878a9.876,9.876,0,0,0,.805-.658h0v7.2a.967.967,0,0,0-.03.432,1.962,1.962,0,0,1,.03.328A2.1,2.1,0,0,1,48.988,32.969ZM49.065,12.9v7.2a.967.967,0,0,0-.03.432,1.962,1.962,0,0,1,.03.328,2.1,2.1,0,0,1-.077.47,2.386,2.386,0,0,1-.113.352,2.787,2.787,0,0,1-.139.288,3.289,3.289,0,0,1-.224.358c-.064.09-.137.179-.212.269-.108.127-.222.254-.352.38-.079.077-.165.152-.252.229-.159.139-.325.276-.51.413-.08.059-.165.116-.249.175-.219.151-.448.3-.7.449-.066.04-.137.078-.206.116-.289.163-.591.325-.917.482-.042.02-.085.04-.128.059-.364.172-.744.341-1.151.5l-.035.014A37.607,37.607,0,0,1,35.5,27.521l-.049.007q-.957.141-1.965.251c-.11.012-.225.019-.336.031-.587.061-1.181.117-1.792.162-.279.02-.572.03-.857.048-.46.027-.915.057-1.386.074-.77.024-1.556.04-2.358.04s-1.588-.016-2.359-.043c-.471-.016-.926-.048-1.386-.074-.284-.016-.577-.027-.857-.048-.611-.045-1.2-.1-1.792-.162-.111-.012-.226-.019-.336-.031q-1.008-.111-1.965-.251l-.049-.007A37.607,37.607,0,0,1,9.7,25.413L9.668,25.4c-.406-.163-.788-.332-1.151-.5-.042-.02-.086-.04-.128-.059-.326-.157-.628-.318-.917-.482-.068-.039-.14-.077-.206-.116-.251-.147-.48-.3-.7-.449-.083-.058-.17-.115-.249-.175-.185-.137-.351-.275-.51-.413-.086-.076-.174-.151-.252-.229a5.062,5.062,0,0,1-.352-.38c-.076-.089-.148-.178-.212-.269a3.617,3.617,0,0,1-.224-.358,3,3,0,0,1-.139-.288,2.351,2.351,0,0,1-.113-.352,2.1,2.1,0,0,1-.076-.468,2.071,2.071,0,0,1,.03-.328.967.967,0,0,0-.03-.432V12.9c.116.106.249.21.375.314.07.058.135.116.209.175.291.229.605.455.946.675.071.046.15.09.224.136q.428.266.9.522c.117.063.235.125.356.187q.531.271,1.117.526c.064.028.122.057.187.084.455.193.938.377,1.441.556.139.049.284.1.427.145q.6.2,1.241.389c.154.045.306.091.464.134.568.157,1.153.307,1.768.444.084.019.176.035.261.053.542.118,1.1.228,1.683.331.2.035.395.068.595.1q.825.135,1.7.248c.149.019.292.042.443.06.722.087,1.469.162,2.236.226.189.016.386.027.578.041q.921.067,1.884.111c.234.011.467.021.705.03.836.028,1.688.049,2.571.049s1.735-.02,2.571-.049c.238-.009.47-.019.705-.03q.963-.044,1.884-.111c.192-.015.388-.025.578-.041.767-.063,1.514-.139,2.236-.226.151-.018.294-.041.443-.06q.872-.113,1.7-.248c.2-.033.4-.066.595-.1.578-.1,1.141-.212,1.683-.331.085-.018.177-.035.261-.053.615-.138,1.2-.288,1.768-.444.158-.044.309-.089.464-.134q.642-.188,1.241-.389c.143-.049.288-.1.427-.145.5-.178.987-.363,1.441-.556.065-.027.123-.056.187-.084q.586-.256,1.117-.526c.121-.062.24-.124.356-.187q.476-.255.9-.522c.074-.046.153-.09.224-.136.341-.22.655-.445.946-.675.073-.058.138-.116.209-.175C48.815,13.105,48.948,13,49.065,12.9ZM26.752,1.94c13.15,0,22.312,3.834,22.312,7.276S39.9,16.492,26.752,16.492,4.44,12.658,4.44,9.216,13.6,1.94,26.752,1.94Zm22.312,42.4a.989.989,0,0,0-.031.131c-.55,3.356-9.635,6.948-22.281,6.948S5.021,47.823,4.471,44.467a1.057,1.057,0,0,0-.031-.127V36.178c.027.025.061.049.089.075.211.186.427.372.669.55,3.654,2.764,10.962,4.912,21.554,4.912,10.547,0,17.836-2.13,21.506-4.878a9.876,9.876,0,0,0,.805-.658h0Z" transform="translate(317.722 2270.645)" fill="#93a5ff"/><path d="M26.752-.5c6.843,0,12.825.9,17.3,2.6,4.041,1.537,6.623,3.653,7.28,5.966a1.4,1.4,0,0,1,.175.665V44.625a1.467,1.467,0,0,1-.152.65A6.693,6.693,0,0,1,48.7,48.78a19.615,19.615,0,0,1-5.4,2.691,52.893,52.893,0,0,1-16.552,2.384,52.837,52.837,0,0,1-16.581-2.393,19.5,19.5,0,0,1-5.4-2.7,6.639,6.639,0,0,1-2.633-3.522A1.417,1.417,0,0,1,2,44.625V8.731a1.4,1.4,0,0,1,.175-.665c.657-2.313,3.239-4.43,7.28-5.966C13.928.4,19.909-.5,26.752-.5Zm0,53.355A51.882,51.882,0,0,0,42.98,50.526c4.253-1.459,6.888-3.432,7.419-5.553l.016-.065.033-.058a.456.456,0,0,0,.058-.225V8.731a.468.468,0,0,0-.076-.227L50.4,8.448l-.017-.062c-.537-1.989-2.974-3.939-6.687-5.351C39.334,1.376,33.476.5,26.752.5S14.171,1.376,9.811,3.034C6.1,4.446,3.661,6.4,3.124,8.386l-.017.062L3.076,8.5A.468.468,0,0,0,3,8.731V44.625a.413.413,0,0,0,.053.2l.031.058.015.064c.513,2.128,3.14,4.107,7.4,5.572A51.826,51.826,0,0,0,26.752,52.855Zm0-51.415A50.714,50.714,0,0,1,43.006,3.816a16.575,16.575,0,0,1,4.732,2.419,3.976,3.976,0,0,1,1.827,2.981A3.976,3.976,0,0,1,47.738,12.2a16.575,16.575,0,0,1-4.732,2.419,50.714,50.714,0,0,1-16.254,2.376A50.714,50.714,0,0,1,10.5,14.616,16.575,16.575,0,0,1,5.767,12.2,3.976,3.976,0,0,1,3.94,9.216,3.976,3.976,0,0,1,5.767,6.235,16.575,16.575,0,0,1,10.5,3.816,50.714,50.714,0,0,1,26.752,1.44Zm0,14.551a49.706,49.706,0,0,0,15.921-2.319c3.634-1.283,5.891-2.991,5.891-4.457s-2.257-3.174-5.891-4.457A49.706,49.706,0,0,0,26.752,2.44,49.706,49.706,0,0,0,10.832,4.759C7.2,6.042,4.94,7.749,4.94,9.216S7.2,12.39,10.832,13.673A49.706,49.706,0,0,0,26.752,15.992ZM3.94,11.766l.836.76c.072.065.154.133.242.2l.117.1.079.067c.041.035.08.069.12.1.288.227.594.445.908.648.035.023.074.046.113.069l.1.062c.27.168.565.339.878.507.131.07.241.128.347.182.351.179.717.351,1.088.512l.089.041.091.041c.423.18.885.358,1.415.546.086.031.174.06.263.089l.158.053c.384.129.783.255,1.22.382l.15.044c.1.031.2.06.3.087.608.168,1.178.312,1.747.439.045.01.089.019.133.027l.124.025c.512.112,1.072.222,1.665.327.19.034.387.067.589.1.53.087,1.1.17,1.681.246l.2.027c.08.011.161.023.244.033.691.084,1.437.159,2.217.224.122.01.247.018.372.027l.2.014c.608.044,1.237.081,1.871.11h.014c.228.01.455.021.687.029.976.033,1.788.048,2.552.048s1.576-.015,2.554-.048c.225-.008.448-.018.672-.029h.028c.634-.029,1.263-.066,1.87-.11l.259-.018c.106-.007.211-.014.315-.022.754-.062,1.5-.137,2.217-.224.083-.01.163-.021.243-.033l.2-.027c.581-.076,1.146-.158,1.681-.246.209-.035.4-.066.588-.1.594-.106,1.154-.216,1.664-.327l.136-.028.125-.026c.547-.122,1.117-.266,1.743-.438.105-.029.208-.059.31-.089l.148-.043c.436-.128.835-.253,1.22-.382l.157-.053c.088-.029.176-.059.262-.089.536-.19,1-.369,1.413-.545.035-.014.064-.028.094-.042l.087-.04c.385-.168.752-.341,1.091-.514.123-.063.236-.123.345-.181.314-.168.608-.338.877-.506l.1-.063c.039-.023.078-.046.114-.069.32-.207.625-.425.907-.647.035-.028.07-.058.105-.088l.1-.081.115-.095c.087-.071.17-.138.242-.2l.836-.76v8.4l-.02.069a.469.469,0,0,0-.017.209,2.437,2.437,0,0,1,.037.41,2.368,2.368,0,0,1-.082.553l-.007.032a2.864,2.864,0,0,1-.135.424,3.267,3.267,0,0,1-.164.341,3.778,3.778,0,0,1-.258.412c-.078.11-.168.218-.236.3-.136.161-.259.293-.385.416-.086.084-.178.164-.267.242l0,0c-.2.173-.37.312-.543.44-.069.051-.14.1-.209.147l-.054.037c-.264.182-.5.331-.727.467-.05.03-.1.06-.156.089l-.061.034c-.345.194-.645.352-.945.5l-.115.053-.021.009c-.406.192-.789.359-1.172.513l-.031.012-.008,0a38.352,38.352,0,0,1-8.417,2.135l-.015,0-.021,0-.014,0c-.634.093-1.3.179-1.984.254l-.181.017-.157.014c-.69.072-1.264.124-1.808.163-.168.012-.341.021-.508.029l-.354.019-.249.015c-.373.022-.758.046-1.151.059-.857.027-1.634.04-2.376.04-.767,0-1.567-.014-2.377-.043-.36-.013-.714-.034-1.056-.054l-.341-.02-.32-.017c-.179-.009-.365-.018-.545-.031-.544-.04-1.118-.092-1.807-.163l-.157-.015-.179-.017c-.656-.072-1.321-.157-1.978-.253l-.062-.009a38.365,38.365,0,0,1-8.4-2.131l-.048-.019c-.39-.157-.775-.325-1.175-.514l-.005,0-.069-.032-.051-.023-.006,0c-.309-.149-.619-.312-.946-.5l-.073-.041c-.048-.026-.1-.053-.141-.08-.232-.136-.463-.285-.728-.468l-.077-.053c-.061-.042-.124-.085-.187-.132-.171-.126-.343-.266-.54-.438l-.022-.019c-.084-.073-.17-.149-.253-.231a5.548,5.548,0,0,1-.383-.414c-.067-.079-.157-.187-.238-.3a4.1,4.1,0,0,1-.254-.405,3.53,3.53,0,0,1-.163-.339,2.875,2.875,0,0,1-.138-.431L4.021,21.4a2.351,2.351,0,0,1-.081-.547,2.533,2.533,0,0,1,.036-.407.471.471,0,0,0-.016-.211l-.02-.069Zm22.812,7.166c-.776,0-1.6-.015-2.588-.049-.237-.009-.467-.019-.7-.03h-.014c-.643-.029-1.281-.067-1.9-.111l-.195-.013c-.13-.009-.261-.017-.388-.028-.793-.066-1.552-.143-2.255-.228-.09-.011-.176-.023-.263-.035l-.185-.025c-.6-.078-1.173-.162-1.714-.251-.205-.034-.406-.067-.6-.1-.606-.108-1.179-.22-1.7-.335l-.1-.021c-.055-.011-.11-.022-.163-.034-.583-.131-1.169-.278-1.79-.45-.11-.03-.218-.062-.323-.093l-.146-.043c-.452-.132-.864-.261-1.262-.4l-.153-.051c-.1-.032-.19-.063-.282-.1-.548-.195-1.029-.38-1.468-.567-.041-.017-.082-.036-.124-.055l-.069-.032c-.388-.168-.773-.35-1.142-.538-.113-.058-.229-.119-.366-.192-.331-.178-.645-.359-.932-.538l-.085-.051c-.05-.029-.1-.059-.145-.089-.26-.168-.514-.345-.759-.53v6.082a1.445,1.445,0,0,1,.023.579,1.087,1.087,0,0,0,.031.565L5,21.211a1.863,1.863,0,0,0,.089.278,2.507,2.507,0,0,0,.114.236,3.108,3.108,0,0,0,.192.306c.06.085.132.171.187.236a4.6,4.6,0,0,0,.319.345c.065.064.136.127.212.193l.021.019c.175.153.327.276.478.387.049.036.1.073.157.111l.081.056c.243.168.455.3.666.428l.005,0c.036.022.074.043.112.064l.083.047c.305.173.594.325.882.464l.04.018.091.042c.382.181.749.341,1.12.49l.034.013a37.351,37.351,0,0,0,8.193,2.075l.014,0,.02,0,.015,0c.648.095,1.3.178,1.948.249l.158.015.176.016c.678.071,1.242.122,1.776.161.168.012.348.021.521.03l.328.017.343.02c.336.02.683.041,1.032.053.8.028,1.586.042,2.342.042.732,0,1.5-.013,2.343-.04.378-.013.757-.036,1.124-.058l.249-.015.365-.019c.161-.008.328-.016.484-.028.533-.039,1.1-.09,1.776-.161l.175-.016.159-.015c.666-.073,1.32-.157,1.94-.248l.062-.009a37.344,37.344,0,0,0,8.184-2.073l.029-.011.007,0c.366-.147.733-.307,1.123-.492l.032-.014.09-.042c.282-.136.565-.285.891-.468l.067-.037c.043-.024.086-.047.126-.072l.005,0c.211-.124.424-.26.668-.429l.056-.039c.064-.044.124-.085.179-.126.152-.112.3-.235.48-.389l0,0c.083-.073.161-.141.229-.208.1-.1.2-.21.32-.346.056-.066.127-.152.186-.235a2.81,2.81,0,0,0,.193-.308,2.288,2.288,0,0,0,.114-.236,1.878,1.878,0,0,0,.089-.278l.008-.034a1.592,1.592,0,0,0,.056-.323,1.461,1.461,0,0,0-.023-.244,1.448,1.448,0,0,1,.023-.58V13.951c-.242.182-.5.359-.758.529-.047.03-.1.06-.146.089l-.087.052c-.286.179-.6.36-.931.538-.113.061-.233.124-.364.191-.357.182-.742.363-1.144.539l-.068.031c-.041.019-.083.038-.126.056-.431.183-.911.369-1.466.566-.091.033-.186.064-.281.1l-.152.051c-.4.135-.811.264-1.261.4l-.146.042c-.107.031-.215.063-.325.093-.641.176-1.227.324-1.792.45l-.146.03-.118.024c-.522.114-1.095.226-1.7.334-.195.035-.387.067-.6.1-.546.089-1.123.174-1.715.251l-.185.025c-.086.012-.173.024-.262.035-.73.088-1.489.165-2.256.228-.109.009-.22.016-.33.024l-.251.017c-.618.045-1.256.082-1.9.112h-.028c-.227.01-.452.021-.682.029C28.351,18.916,27.528,18.932,26.752,18.932Zm22.811,4.4v8.48l-.02.069a.469.469,0,0,0-.017.209,2.437,2.437,0,0,1,.037.41,2.367,2.367,0,0,1-.082.553l-.007.032a2.863,2.863,0,0,1-.135.424,3.267,3.267,0,0,1-.164.341,3.777,3.777,0,0,1-.258.412c-.078.111-.168.218-.236.3-.136.161-.259.293-.385.416-.086.084-.178.165-.267.243l0,0c-.2.172-.369.311-.542.439-.069.051-.14.1-.209.147l-.054.037c-.264.182-.5.331-.728.467-.05.03-.1.059-.155.089l-.061.034c-.345.194-.645.352-.945.5l-.115.053-.02.009c-.406.192-.79.36-1.172.513l-.031.012-.007,0a38.352,38.352,0,0,1-8.417,2.135l-.015,0-.021,0-.013,0c-.634.093-1.3.179-1.984.254l-.181.017-.157.014c-.69.072-1.264.124-1.808.163-.168.012-.341.021-.508.029l-.355.019-.248.015c-.373.023-.758.046-1.151.06-.857.027-1.634.04-2.376.04-.767,0-1.567-.014-2.377-.043-.36-.013-.714-.034-1.056-.054l-.341-.02-.32-.017c-.179-.009-.365-.018-.545-.031-.544-.04-1.119-.092-1.807-.163l-.157-.015-.179-.017c-.655-.072-1.32-.157-1.978-.253l-.063-.009a38.364,38.364,0,0,1-8.4-2.131L9.478,37.5c-.39-.157-.775-.325-1.175-.514l-.005,0-.069-.032-.051-.023-.006,0c-.309-.149-.619-.312-.946-.5l-.073-.041c-.048-.026-.1-.053-.141-.08-.232-.136-.463-.285-.728-.467l-.077-.053c-.061-.042-.124-.085-.186-.132-.171-.127-.344-.266-.54-.438L5.458,35.2c-.084-.073-.17-.149-.253-.231a5.543,5.543,0,0,1-.383-.414c-.067-.079-.156-.187-.238-.3a4.1,4.1,0,0,1-.254-.405,3.53,3.53,0,0,1-.163-.339,2.875,2.875,0,0,1-.138-.431l-.008-.033A2.351,2.351,0,0,1,3.94,32.5a2.533,2.533,0,0,1,.036-.407.471.471,0,0,0-.016-.211l-.02-.069V23.39l.84.78.02.016c.022.017.043.035.063.053.181.159.4.346.632.52l.005,0a22.316,22.316,0,0,0,7.993,3.405,56.384,56.384,0,0,0,13.259,1.405,56.453,56.453,0,0,0,13.214-1.394A22.492,22.492,0,0,0,47.959,24.8l.005,0a9.36,9.36,0,0,0,.755-.616Zm-1,8.343V25.591l-.009.007c-4.226,3.162-12.172,4.975-21.8,4.975S9.164,28.758,4.94,25.593v6.081a1.445,1.445,0,0,1,.023.579,1.087,1.087,0,0,0,.031.565L5,32.853a1.863,1.863,0,0,0,.089.278,2.509,2.509,0,0,0,.114.236,3.109,3.109,0,0,0,.192.306c.06.085.132.171.187.236a4.593,4.593,0,0,0,.319.345c.065.064.137.127.213.193l.021.018c.175.153.327.276.478.387.049.036.1.072.157.111l.081.056c.243.168.455.3.666.428l.005,0c.036.022.074.043.112.064l.083.047c.305.173.594.325.882.464l.04.018.091.042c.382.181.749.341,1.12.49l.034.013a37.351,37.351,0,0,0,8.193,2.075l.014,0,.021,0,.014,0c.648.095,1.3.178,1.948.249l.158.015.176.016c.678.071,1.242.122,1.776.161.168.012.348.021.522.03l.327.017.344.02c.336.02.683.041,1.031.053.8.028,1.586.042,2.342.042.732,0,1.5-.013,2.343-.04.379-.013.758-.036,1.124-.058l.248-.015.365-.019c.161-.008.328-.016.484-.028.533-.039,1.1-.09,1.776-.161l.176-.016.159-.015c.667-.073,1.32-.157,1.94-.248l.062-.009a37.346,37.346,0,0,0,8.184-2.073l.029-.011.007,0c.365-.146.733-.307,1.123-.492l.032-.014.09-.042c.283-.136.565-.285.891-.468l.067-.037c.043-.024.086-.047.126-.072l.005,0c.211-.124.424-.26.668-.429l.056-.039c.064-.044.124-.085.179-.126.152-.112.3-.235.48-.389.085-.075.164-.144.232-.21.1-.1.205-.21.32-.346.056-.066.127-.152.186-.235a2.812,2.812,0,0,0,.193-.308,2.288,2.288,0,0,0,.114-.236,1.878,1.878,0,0,0,.089-.278l.008-.034a1.593,1.593,0,0,0,.056-.324,1.461,1.461,0,0,0-.023-.244A1.448,1.448,0,0,1,48.565,31.674Zm1,3.3v9.442l-.024.074a.5.5,0,0,0-.015.065,4.66,4.66,0,0,1-2.136,2.822,18.34,18.34,0,0,1-4.8,2.3,51.563,51.563,0,0,1-15.836,2.242,51.563,51.563,0,0,1-15.836-2.242,18.34,18.34,0,0,1-4.8-2.3,4.664,4.664,0,0,1-2.136-2.822.563.563,0,0,0-.016-.064l-.022-.072V35.031l.84.78.02.016c.022.017.043.035.063.053.181.159.4.346.632.52l.005,0a22.316,22.316,0,0,0,7.993,3.405,56.384,56.384,0,0,0,13.259,1.405A56.454,56.454,0,0,0,39.966,39.82a22.492,22.492,0,0,0,7.993-3.384l.005,0a9.36,9.36,0,0,0,.755-.616Zm-1,9.3V37.232l-.009.007c-4.226,3.162-12.172,4.975-21.8,4.975S9.164,40.4,4.94,37.234v7.038c.009.036.017.072.023.108v.007A3.809,3.809,0,0,0,6.7,46.562a17.62,17.62,0,0,0,4.537,2.163,50.551,50.551,0,0,0,15.517,2.19,50.551,50.551,0,0,0,15.517-2.19,17.62,17.62,0,0,0,4.537-2.163,3.809,3.809,0,0,0,1.733-2.176C48.548,44.344,48.556,44.3,48.565,44.269Z" transform="translate(317.722 2270.645)" fill="#93a5ff"/></g></svg>