<svg xmlns="http://www.w3.org/2000/svg" width="64.01" height="58.46" viewBox="0 0 64.01 58.46"><g transform="translate(-322.99 -2260)"><rect width="52" height="54" rx="5" transform="translate(335 2260)" fill="#93a5ff" opacity="0.15"/><g transform="translate(323.49 2268.124)"><path d="M1.714,25.529a1.013,1.013,0,0,0,1.014-1.014A11.171,11.171,0,0,1,13.886,13.357H38.23v9.092l13.9-10.107L38.23,2.236v9.092H13.886A13.2,13.2,0,0,0,.7,24.514,1.013,1.013,0,0,0,1.714,25.529ZM40.258,6.22l8.419,6.122-8.419,6.122Z" transform="translate(0.01)" fill="#93a5ff"/><path d="M1.714,26.029A1.516,1.516,0,0,1,.2,24.514,13.7,13.7,0,0,1,13.886,10.828H37.73V2.236a.5.5,0,0,1,.794-.4l13.9,10.107a.5.5,0,0,1,0,.809l-13.9,10.107a.5.5,0,0,1-.794-.4V13.857H13.886A10.67,10.67,0,0,0,3.229,24.514,1.516,1.516,0,0,1,1.714,26.029Zm12.172-14.2A12.7,12.7,0,0,0,1.2,24.514a.514.514,0,1,0,1.029,0A11.671,11.671,0,0,1,13.886,12.857H38.23a.5.5,0,0,1,.5.5v8.11l12.546-9.125L38.73,3.218v8.11a.5.5,0,0,1-.5.5Zm26.372,7.137a.5.5,0,0,1-.5-.5V6.22a.5.5,0,0,1,.794-.4l8.419,6.122a.5.5,0,0,1,0,.809l-8.419,6.122A.5.5,0,0,1,40.258,18.965Zm.5-11.763V17.483l7.069-5.141Z" transform="translate(0.01)" fill="#93a5ff"/><path d="M50.412,26.2A1.013,1.013,0,0,0,49.4,27.214,11.171,11.171,0,0,1,38.24,38.372H13.9V29.279L0,39.386,13.9,49.493V40.4H38.24A13.2,13.2,0,0,0,51.426,27.214,1.013,1.013,0,0,0,50.412,26.2ZM11.868,45.509,3.449,39.386l8.419-6.122V45.509Z" transform="translate(0 0.343)" fill="#93a5ff"/><path d="M50.412,25.7a1.516,1.516,0,0,1,1.514,1.514A13.7,13.7,0,0,1,38.24,40.9H14.4v8.592a.5.5,0,0,1-.794.4L-.294,39.79a.5.5,0,0,1-.206-.4.5.5,0,0,1,.206-.4L13.6,28.875a.5.5,0,0,1,.794.4v8.592H38.24A10.67,10.67,0,0,0,48.9,27.214,1.516,1.516,0,0,1,50.412,25.7ZM38.24,39.9A12.7,12.7,0,0,0,50.926,27.214a.514.514,0,0,0-1.029,0A11.671,11.671,0,0,1,38.24,38.872H13.9a.5.5,0,0,1-.5-.5v-8.11L.85,39.386,13.4,48.511V40.4a.5.5,0,0,1,.5-.5ZM11.868,32.764a.5.5,0,0,1,.5.5V45.509a.5.5,0,0,1-.794.4L3.155,39.791a.5.5,0,0,1,0-.809l8.419-6.122A.5.5,0,0,1,11.868,32.764Zm-.5,11.763V34.246L4.3,39.386Z" transform="translate(0 0.343)" fill="#93a5ff"/></g></g></svg>