<svg xmlns="http://www.w3.org/2000/svg" width="135.481" height="18.578" viewBox="0 0 135.481 18.578"><g transform="translate(-347 -1949)"><path d="M10.2.758l2.478,5.865,6.344.545a.5.5,0,0,1,.285.876L14.5,12.213l1.442,6.2a.5.5,0,0,1-.745.541L9.741,15.668,4.289,18.956a.5.5,0,0,1-.745-.541l1.442-6.2L.173,8.043a.5.5,0,0,1,.285-.876L6.8,6.622,9.28.758a.5.5,0,0,1,.921,0Z" transform="translate(347 1948.548)" fill="#fad56b"/><path d="M10.2.758l2.478,5.865,6.344.545a.5.5,0,0,1,.285.876L14.5,12.213l1.442,6.2a.5.5,0,0,1-.745.541L9.741,15.668,4.289,18.956a.5.5,0,0,1-.745-.541l1.442-6.2L.173,8.043a.5.5,0,0,1,.285-.876L6.8,6.622,9.28.758a.5.5,0,0,1,.921,0Z" transform="translate(376 1948.548)" fill="#fad56b"/><path d="M10.2.758l2.478,5.865,6.344.545a.5.5,0,0,1,.285.876L14.5,12.213l1.442,6.2a.5.5,0,0,1-.745.541L9.741,15.668,4.289,18.956a.5.5,0,0,1-.745-.541l1.442-6.2L.173,8.043a.5.5,0,0,1,.285-.876L6.8,6.622,9.28.758a.5.5,0,0,1,.921,0Z" transform="translate(405 1948.548)" fill="#fad56b"/><path d="M10.2.758l2.478,5.865,6.344.545a.5.5,0,0,1,.285.876L14.5,12.213l1.442,6.2a.5.5,0,0,1-.745.541L9.741,15.668,4.289,18.956a.5.5,0,0,1-.745-.541l1.442-6.2L.173,8.043a.5.5,0,0,1,.285-.876L6.8,6.622,9.28.758a.5.5,0,0,1,.921,0Z" transform="translate(434 1948.548)" fill="#fad56b"/><path d="M10.2.758l2.478,5.865,6.344.545a.5.5,0,0,1,.285.876L14.5,12.213l1.442,6.2a.5.5,0,0,1-.745.541L9.741,15.668,4.289,18.956a.5.5,0,0,1-.745-.541l1.442-6.2L.173,8.043a.5.5,0,0,1,.285-.876L6.8,6.622,9.28.758a.5.5,0,0,1,.921,0Z" transform="translate(463 1948.548)" fill="#fad56b"/></g></svg>