<svg xmlns="http://www.w3.org/2000/svg" width="69.548" height="62.46" viewBox="0 0 69.548 62.46"><g transform="translate(-317.452 -2260)"><rect width="52" height="54" rx="5" transform="translate(335 2260)" fill="#93a5ff" opacity="0.15"/><path d="M25.254,0A25.254,25.254,0,1,0,50.508,25.254,25.254,25.254,0,0,0,25.254,0ZM47.1,34.1l-7.182,1.239A37.686,37.686,0,0,0,41.235,26.1H48.8A23.414,23.414,0,0,1,47.1,34.1ZM1.7,26.1H9.273a37.687,37.687,0,0,0,1.321,9.245L3.413,34.1A23.414,23.414,0,0,1,1.7,26.1Zm1.708-9.689,7.182-1.239a37.686,37.686,0,0,0-1.321,9.245H1.7a23.414,23.414,0,0,1,1.708-8.005ZM26.1,13.516a57.911,57.911,0,0,1,9.024.824l2.971.513a36.134,36.134,0,0,1,1.46,9.56H26.1Zm9.311-.835a59.67,59.67,0,0,0-9.311-.848V1.731c4.826.464,9.018,4.882,11.394,11.313Zm-10.995-.848a59.66,59.66,0,0,0-9.31.848l-2.084.36C15.394,6.609,19.586,2.189,24.412,1.727ZM15.389,14.34a57.9,57.9,0,0,1,9.024-.824v10.9H10.956a36.134,36.134,0,0,1,1.46-9.56ZM10.956,26.1H24.412v10.9a57.911,57.911,0,0,1-9.024-.824l-2.971-.513a36.134,36.134,0,0,1-1.46-9.56ZM15.1,37.827a59.871,59.871,0,0,0,9.311.853v10.1c-4.826-.464-9.018-4.883-11.394-11.313ZM26.1,38.68a59.865,59.865,0,0,0,9.31-.853l2.084-.36C35.114,43.9,30.922,48.32,26.1,48.781Zm9.024-2.512a57.9,57.9,0,0,1-9.024.824V26.1H39.552a36.134,36.134,0,0,1-1.46,9.56Zm6.115-11.756a37.687,37.687,0,0,0-1.321-9.245L47.1,16.407A23.414,23.414,0,0,1,48.8,24.412Zm5.009-9.861-6.884-1.188a23.213,23.213,0,0,0-6.7-10.481A23.682,23.682,0,0,1,46.244,14.552ZM17.846,2.883a23.213,23.213,0,0,0-6.7,10.481L4.264,14.551A23.683,23.683,0,0,1,17.846,2.883ZM4.264,35.957l6.884,1.188a23.213,23.213,0,0,0,6.7,10.481A23.682,23.682,0,0,1,4.265,35.957Zm28.4,11.669a23.213,23.213,0,0,0,6.7-10.481l6.884-1.188A23.683,23.683,0,0,1,32.662,47.625Zm0,0" transform="translate(317.952 2271.452)" fill="#93a5ff"/><path d="M25.254,51.008A25.761,25.761,0,0,1,15.229,1.524a25.761,25.761,0,0,1,20.05,47.46A25.593,25.593,0,0,1,25.254,51.008ZM25.254.5a24.761,24.761,0,0,0-9.635,47.563A24.756,24.756,0,0,0,34.884,2.453,24.627,24.627,0,0,0,25.254.5Zm-.341,48.832-.548-.053c-4.879-.469-9.3-4.82-11.815-11.638l-.3-.813,2.937.506a59.556,59.556,0,0,0,9.233.846l.493.007ZM13.8,38.111c2.316,5.724,6.028,9.433,10.109,10.1V39.172a60.58,60.58,0,0,1-8.9-.852ZM25.6,49.331V38.187l.493-.007a59.555,59.555,0,0,0,9.233-.846l2.938-.508-.3.814c-2.519,6.821-6.936,11.172-11.815,11.639Zm1-10.159v9.041c4.081-.667,7.793-4.376,10.109-10.1l-1.214.21A60.58,60.58,0,0,1,26.6,39.172ZM32.82,48.1l-.492-.847A22.716,22.716,0,0,0,38.881,37l.09-.294,8.174-1.41-.456.891A24.183,24.183,0,0,1,32.82,48.1Zm6.925-10.514a23.717,23.717,0,0,1-5.025,8.7,23.2,23.2,0,0,0,10.6-9.659ZM17.688,48.1A24.182,24.182,0,0,1,3.819,36.185l-.456-.891,8.174,1.41.09.294A22.715,22.715,0,0,0,18.18,47.253ZM5.193,36.624a23.2,23.2,0,0,0,10.6,9.659,23.717,23.717,0,0,1-5.025-8.7Zm19.719.874-.506-.006a58.6,58.6,0,0,1-9.1-.831L12.025,36.1l-.088-.3A36.641,36.641,0,0,1,10.456,26.1l-.009-.509H24.912Zm-12.1-2.283,2.663.459a57.606,57.606,0,0,0,8.439.808V26.6H11.469A35.645,35.645,0,0,0,12.81,35.216ZM25.6,37.5V25.6H40.061l-.009.509A36.64,36.64,0,0,1,38.571,35.8l-.088.3-3.279.565a58.581,58.581,0,0,1-9.1.831Zm1-10.9v9.888a57.593,57.593,0,0,0,8.439-.808l2.663-.459A35.645,35.645,0,0,0,39.04,26.6ZM11.284,35.967l-8.23-1.42-.1-.257A23.841,23.841,0,0,1,1.2,26.113L1.187,25.6H9.765l.009.491a37.217,37.217,0,0,0,1.3,9.122Zm-7.51-2.311,6.141,1.06A38.227,38.227,0,0,1,8.785,26.6H2.228A22.832,22.832,0,0,0,3.773,33.656Zm35.451,2.311.207-.758a37.216,37.216,0,0,0,1.3-9.122l.009-.491h8.578l-.018.517a23.84,23.84,0,0,1-1.745,8.176l-.1.257Zm2.5-9.371a38.226,38.226,0,0,1-1.129,8.12l6.141-1.06A22.832,22.832,0,0,0,48.28,26.6ZM24.912,24.912H10.447l.009-.509a36.641,36.641,0,0,1,1.481-9.692l.088-.3,3.279-.566a58.581,58.581,0,0,1,9.1-.831l.506-.006Zm-13.444-1H23.912V14.025a57.592,57.592,0,0,0-8.439.808l-2.663.459A35.645,35.645,0,0,0,11.469,23.912Zm-1.7,1H1.187L1.2,24.4A23.841,23.841,0,0,1,2.95,16.219l.1-.257,8.23-1.42-.207.758a37.216,37.216,0,0,0-1.3,9.122Zm-7.537-1H8.785a38.226,38.226,0,0,1,1.129-8.12l-6.141,1.06A22.832,22.832,0,0,0,2.228,23.912Zm37.833,1H25.6V13.01l.506.006a58.594,58.594,0,0,1,9.1.831l3.279.566.088.3A36.641,36.641,0,0,1,40.052,24.4Zm-13.465-1H39.04a35.645,35.645,0,0,0-1.341-8.62l-2.663-.459a57.6,57.6,0,0,0-8.439-.808Zm14.639,1h-.491l-.009-.491a37.216,37.216,0,0,0-1.3-9.122l-.207-.758,8.23,1.42.1.257A23.84,23.84,0,0,1,49.3,24.4l.018.517Zm-.641-9.12a38.226,38.226,0,0,1,1.129,8.12H48.28a22.831,22.831,0,0,0-1.546-7.06Zm6.551-.578L38.971,13.8l-.09-.294A22.715,22.715,0,0,0,32.328,3.255l.492-.847A24.182,24.182,0,0,1,46.689,14.324Zm-7.4-2.292,5.57.961a23.2,23.2,0,0,0-10.6-9.659A23.717,23.717,0,0,1,39.745,12.923ZM3.363,15.214l.456-.891A24.182,24.182,0,0,1,17.688,2.409l.492.847A22.715,22.715,0,0,0,11.627,13.51l-.09.294ZM15.788,4.224a23.2,23.2,0,0,0-10.6,9.659l5.57-.961A23.718,23.718,0,0,1,15.788,4.224ZM38.26,13.686l-2.939-.512a59.349,59.349,0,0,0-9.232-.841l-.494-.006V1.181l.548.053c4.879.469,9.3,4.819,11.815,11.637ZM26.6,11.341a60.381,60.381,0,0,1,8.9.847L36.7,12.4C34.388,6.676,30.677,2.968,26.6,2.3ZM12.249,13.682l.3-.814C15.069,6.047,19.486,1.7,24.365,1.229l.548-.052V12.326l-.494.006a59.348,59.348,0,0,0-9.232.841ZM23.912,2.3C19.831,2.962,16.12,6.672,13.8,12.4l1.214-.21a60.378,60.378,0,0,1,8.9-.847Z" transform="translate(317.952 2271.452)" fill="#93a5ff"/></g></svg>